<svg width="1400" height="980" xmlns="http://www.w3.org/2000/svg" style="vector-effect: non-scaling-stroke;" stroke="null" xml:space="preserve" enable-background="new 0 0 1400 980" version="1.1">

 <g stroke="null">
  <title stroke="null">Layer 1</title>
  <rect stroke="null" id="svg_5" height="980.90011" width="1041.33341" fill="#9F86B4" y="-1.73319" x="180.28316"/>
  <polygon stroke="null" id="svg_50" points="553.696432352066,28.318031311035156 659.240865945816,391.9486389160156 420.6485502719879,86.10298919677734 632.0810759067535,407.27276611328125 311.3224699497223,177.7290496826172 612.4851286411285,431.2168884277344 235.68799424171448,294.2568664550781 599.7646696567535,458.0343322753906 197.1831419467926,425.4703369140625 596.326803445816,487.08636474609375 199.24603867530823,560.8343505859375 601.4836637973785,516.138671875 242.9077513217926,690.7708740234375 615.9230558872223,541.9982299804688 324.73048996925354,805.7025146484375 635.5190031528473,564.0269165039062 436.46315598487854,891.9011840820312 662.3350431919098,580.3087768554688 571.2300016880035,945.2164916992188 692.9324553012848,587.6515502929688 715.9666349887848,963.7333984375 724.2177336215973,587.01318359375 860.7033903598785,940.7470092773438 754.4714567661285,577.4356079101562 993.063619852066,882.9619140625 779.912008523941,561.1535034179688 1102.0462248325348,791.3360595703125 800.8835051059723,538.8056640625 1177.6807463169098,675.446533203125 812.228658914566,511.6690368652344 1217.2168791294098,545.5101928710938 816.6979582309723,483.57464599609375 1214.8102629184723,409.1884460449219 811.884908914566,455.16094970703125 1172.8675138950348,278.93267822265625 798.1332609653473,427.70513916015625 1089.3257658481598,165.597412109375 778.5370695590973,405.9958801269531 977.2492887973785,79.39872741699219 750.6896574497223,390.9908752441406 843.1700041294098,25.12548828125 721.1236174106598,383.3287048339844 697.7456877231598,7.56649923324585 690.1821501255035,383.9673156738281 " fill="#FFFFFF" clip-rule="evenodd" fill-rule="evenodd"/>
  <path stroke="null" id="svg_51" d="m690.08945,279.94846l-32.96707,26.36843l-24.7253,19.24896c-8.52597,6.59211 -12.78895,10.02 -13.07315,17.93053c0,0 0,0.26368 0,0.26368c0,8.96527 5.96818,13.71158 12.22055,18.72159c0,0 0.8526,0.79105 1.70519,1.31842c7.10497,8.70158 9.09436,25.05001 9.37856,41.92581c-25.8621,0 -55.41878,-2.10947 -66.50254,-14.23895l-14.20994,-15.29369l-42.34563,44.82634l-31.26188,33.22422l-0.2842,6.85579l0,8.4379l75.3127,81.74214l13.64155,-19.77632c8.52597,-12.39316 36.09326,-13.4479 65.36574,-13.4479c0,30.06001 0,239.42537 0,239.95274c0,22.67685 -0.2842,47.99055 -9.09436,58.27424l-2.27359,1.84579l-21.88331,19.77632l17.05193,11.33843l68.20773,54.05529l7.10497,0l9.94696,0l81.56508,-65.92108l-12.22055,-13.18422c-6.82077,-7.38316 -10.79956,-13.71158 -12.78895,-21.35843c-2.84199,-10.02 -3.69459,-22.41317 -4.26298,-36.38844c-0.2842,-9.22895 -0.5684,-18.72159 -0.5684,-28.47791c0,-10.02 0,-20.30369 0.2842,-30.3237l0.2842,-29.26896c0,0 0,-132.63322 0,-160.58375c22.45171,0 44.61922,2.37316 57.40817,11.07474c0,0 3.12619,2.37316 3.12619,2.37316c5.39978,4.21895 10.23116,7.91053 18.47293,6.85579c7.67337,-0.79105 11.36796,-4.74632 17.62033,-11.60211l1.42099,-1.58211c0,0 17.05193,-18.19422 17.05193,-18.19422l35.80906,-37.97054l0.2842,-6.85579l0,-7.38316l-34.38806,-36.65212l-43.48243,-46.93581l-13.07315,21.62211c-7.10497,11.33843 -33.25127,12.92053 -59.68176,12.92053c0.8526,-29.53264 8.52597,-42.98054 15.34674,-48.7816l15.34674,-13.18422l-40.35624,-32.43317l-51.1558,-41.39844l-13.35735,10.28369z" fill="#9F86B4" clip-rule="evenodd" fill-rule="evenodd"/>
  <path stroke="null" id="svg_52" d="m702.97216,305.28147c0,0 0.26813,0 0.26813,0c19.84153,16.18223 39.95118,31.87408 60.06083,47.81112c-17.42837,14.46593 -21.4503,42.90742 -20.10965,73.55557c37.53802,0.24519 75.88043,1.47111 89.28687,-20.10519c17.6965,18.38889 34.58861,37.51334 52.55323,55.65705c0,0.24519 0,0.49037 0,0.73556c-15.55147,15.20148 -30.03042,31.62889 -45.58188,48.05631c-1.34064,1.47111 -5.89883,6.62 -6.43509,6.62c-0.26813,0 -6.16696,-4.65852 -7.77573,-5.63926c-18.76901,-12.50445 -49.06756,-14.22074 -82.31552,-12.99482c0,53.69557 0,110.08817 0,165.25485c0,26.48001 -1.07251,56.14742 0,82.38224c0.53626,13.73037 1.34064,26.23482 4.55819,37.26816c3.21754,11.03334 8.84825,18.87926 15.81959,26.48001c-19.84153,15.44667 -39.41492,30.89334 -58.72019,46.58519c-1.07251,0 -1.8769,0 -2.94942,0c-19.84153,-15.69185 -39.41492,-31.38371 -59.52458,-46.58519c2.68129,-3.18741 6.43509,-4.9037 9.11638,-7.84593c12.87018,-14.46593 12.60205,-41.19112 12.60205,-67.42594c0,-78.21409 0,-159.86077 0,-236.11338c-39.41492,-0.49037 -79.09797,-1.96148 -94.11318,19.86c-17.16024,-18.38889 -34.05235,-36.5326 -51.48072,-54.92149c0,-0.73556 0,-1.22593 0,-1.96148c17.42837,-17.65334 34.05235,-36.28741 51.74884,-54.18594c17.6965,18.63408 55.23452,19.36963 93.84505,18.63408c0.80439,-27.21556 -0.26813,-51.24371 -12.60205,-65.70964c-1.07251,-1.47111 -9.11638,-6.86519 -9.11638,-7.84593c0,-0.24519 5.36257,-4.41333 7.23948,-5.88445c17.6965,-13.97556 37.53802,-28.68667 53.62575,-41.68149z" fill="#FFFFFF" clip-rule="evenodd" fill-rule="evenodd"/>
 </g>
</svg>